HIERARCHY
ROOT Hips
{
  OFFSET -64.8533 90.6699 -68.7863
  CHANNELS 6 Xposition Yposition Zposition Zrotation Xrotation Yrotation
  JOINT ToSpine
  {
    OFFSET -2.69724 7.43032 -0.144315
    CHANNELS 3 Zrotation Xrotation Yrotation
    JOINT Spine
    {
      OFFSET -0.0310711 10.7595 1.96963
      CHANNELS 3 Zrotation Xrotation Yrotation
      JOINT Spine1
      {
        OFFSET 13.1342 3.43533 0.764692
        CHANNELS 3 Zrotation Xrotation Yrotation
        JOINT Neck
        {
          OFFSET 29.8703 7.82586 -0.130764
          CHANNELS 3 Zrotation Xrotation Yrotation
          JOINT Head
          {
            OFFSET 9.52751 0.295786 -0.907742
            CHANNELS 3 Zrotation Xrotation Yrotation
            End Site
            {
              OFFSET 16.4037 0.713936 2.7358
            }
          }
        }
        JOINT LeftShoulder
        {
          OFFSET 27.5574 4.95586 2.47156
          CHANNELS 3 Zrotation Xrotation Yrotation
          JOINT LeftArm
          {
            OFFSET 1.20734 -0.998971 20.1238
            CHANNELS 3 Zrotation Xrotation Yrotation
            JOINT LeftForeArm
            {
              OFFSET 26.8049 -0.0536703 -0.155908
              CHANNELS 3 Zrotation Xrotation Yrotation
              JOINT LeftHand
              {
                OFFSET 26.6817 0 0.320147
                CHANNELS 3 Zrotation Xrotation Yrotation
                End Site
                {
                  OFFSET 18.6119 0 0.382219
                }
              }
            }
          }
        }
        JOINT RightShoulder
        {
          OFFSET 27.5927 4.71444 -2.65209
          CHANNELS 3 Zrotation Xrotation Yrotation
          JOINT RightArm
          {
            OFFSET 2.83739 -1.17114 -18.7564
            CHANNELS 3 Zrotation Xrotation Yrotation
            JOINT RightForeArm
            {
              OFFSET 28.839 -0.0548439 1.22491
              CHANNELS 3 Zrotation Xrotation Yrotation
              JOINT RightHand
              {
                OFFSET 26.5114 0 -0.101894
                CHANNELS 3 Zrotation Xrotation Yrotation
                End Site
                {
                  OFFSET 18.2168 0 0
                }
              }
            }
          }
        }
      }
    }
  }
  JOINT LeftUpLeg
  {
    OFFSET -4.76168 -1.9167 -10.2353
    CHANNELS 3 Zrotation Xrotation Yrotation
    JOINT LeftLeg
    {
      OFFSET 2.55951 -42.0585 -8.02213
      CHANNELS 3 Zrotation Xrotation Yrotation
      JOINT LeftFoot
      {
        OFFSET 3.16357 -42.5282 -3.95426
        CHANNELS 3 Zrotation Xrotation Yrotation
        JOINT LeftToeBase
        {
          OFFSET 0.346054 -6.02161 12.8035
          CHANNELS 3 Zrotation Xrotation Yrotation
          End Site
          {
            OFFSET 0.134235 -1.35082 5.13018
          }
        }
      }
    }
  }
  JOINT RightUpLeg
  {
    OFFSET -4.94151 -1.41743 10.6446
    CHANNELS 3 Zrotation Xrotation Yrotation
    JOINT RightLeg
    {
      OFFSET -2.56294 -42.0364 -7.94377
      CHANNELS 3 Zrotation Xrotation Yrotation
      JOINT RightFoot
      {
        OFFSET -3.0952 -42.555 -4.02241
        CHANNELS 3 Zrotation Xrotation Yrotation
        JOINT RightToeBase
        {
          OFFSET -0.0828122 -6.13587 12.8035
          CHANNELS 3 Zrotation Xrotation Yrotation
          End Site
          {
            OFFSET -0.131328 -1.35082 5.13018
          }
        }
      }
    }
  }
}
MOTION
Frames:	15
Frame Time:	0.0333333
3.86628 94.4449 -2.52009 55.3358 -40.8162 -24.5277 -70.1915 0 88.8779 93.8031 77.2166 -7.24673 -1.17047 26.6587 2.61114 -150 23.0028 170.264 -155.155 62.4814 -174.574 1.10416 -9.84566 -28.1251 -81.3823 63.7254 -37.3773 15.7482 0.900686 -86.1425 0.420957 0.000575239 0.35866 -1.6744 6.08166 42.147 -69.5192 -45.0676 73.2514 17.4375 3.98875 102.191 0.58676 0.0003311 0.0646653 -19.3082 1.58584 101.258 -3.37494 38.2043 -16.582 -14.5611 9.13257 3.67613 7.02915 -15.4994 8.91171 -67.8829 2.60014 87.2563 46.3155 85.1701 -45.4959 6.24446 21.4711 -3.45111 2.73524 5.53483 -16.296 
12.1769 92.3868 5.92096 57.6966 -38.8488 -23.793 -70.1915 0 88.8779 96.291 75.1981 -14.1429 -1.59879 24.8933 2.88145 -147.467 21.6195 166.929 -151.27 61.1387 -176.343 0.839235 -11.2662 -29.4832 -81.8486 59.3686 -41.2122 15.8596 0.985792 -85.8715 0.420957 0.000575239 0.35866 -1.70019 5.6276 44.8235 -70.2785 -43.4601 71.3598 18.3006 1.81111 95.2075 0.58676 0.0003311 0.0646653 -22.8406 -1.97942 100.859 -5.14787 49.07 -21.1345 -2.01893 -3.42768 -0.158295 1.61007 -5.99124 8.34871 -56.8561 0.863651 84.3084 166.667 72.101 -173.75 3.19699 20.7696 -2.41703 1.27094 5.87051 -9.32651 
20.0147 90.1731 13.3346 57.7134 -38.8989 -25.5953 -70.1915 0 88.8779 100.501 72.9483 -22.0025 -2.29815 22.9125 2.79798 -151.116 20.0445 167.527 -153.371 59.4796 -175.177 0.579508 -12.3548 -32.1015 -84.0246 53.2015 -46.226 17.6266 0.968887 -86.2838 0.420957 0.000575239 0.35866 -1.85939 5.98156 45.5784 -69.6554 -43.4583 71.7115 18.1657 -0.895071 87.0751 0.58676 0.0003311 0.0646653 -24.6103 -5.24336 100.507 -6.62703 58.915 -12.7668 5.8461 -12.3873 -1.18985 1.75239 -6.71786 10.2896 -39.4431 -1.06496 84.982 172.34 53.6034 173.851 -6.17009 23.3804 0.396779 -1.20886 0.128976 7.10515 
27.2322 89.6737 20.3743 57.1554 -37.1605 -25.5555 -70.1915 0 88.8779 104.068 70.2511 -26.7237 -2.12475 20.413 2.83699 -156.517 19.4682 168.388 -154.634 58.506 -176.852 -0.188992 -15.4135 -34.2955 -83.0921 46.0244 -56.5499 17.1386 0.774308 -86.8176 0.420957 0.000575239 0.35866 -2.01077 6.28284 46.397 -69.6888 -42.854 68.729 16.62 -2.36255 81.9743 0.58676 0.0003311 0.0646653 -29.7541 -7.04626 98.2675 -7.67895 61.0582 -14.7634 4.85032 -17.687 -1.37248 3.44997 -10.4526 15.4586 -18.2449 0.487958 84.9875 172.192 45.2003 178.532 -6.40522 27.3259 0.38856 0.803802 -6.54886 -0.206579 
36.0831 90.5726 28.9024 57.3409 -36.1508 -22.1849 -70.1915 0 88.8779 107.005 67.6432 -26.5284 -2.74053 18.0938 2.72254 -153.935 18.3457 167.579 -152.473 57.351 -177.239 0.0280083 -14.8088 -32.609 -82.5083 42.9496 -65.7675 18.2446 -0.21383 -89.9536 0.420957 0.000575239 0.35866 -1.98205 5.8555 48.2045 -68.721 -42.5152 62.8543 17.2785 -3.19731 79.6843 0.58676 0.0003311 0.0646653 -39.0633 -5.57029 94.3922 -7.55171 59.8148 -17.5364 0.945341 -20.964 -1.72902 4.33347 -11.8355 15.7896 -4.30444 2.58613 83.5176 171.463 50.4309 -178.359 -2.47014 23.1952 -0.807507 1.55668 -3.88849 -8.51286 
46.0724 93.3046 38.3513 56.7104 -36.2317 -20.0619 -70.1915 0 88.8779 104.84 65.927 -20.6976 -2.38331 16.1191 1.97028 -150.732 16.8828 167.689 -151.149 55.8793 -177.842 0.483809 -13.0111 -30.3701 -85.0921 42.8963 -68.5791 18.4679 -2.26812 -96.0231 0.420957 0.000575239 0.35866 -2.06232 5.86765 49.4106 -65.6249 -43.4292 58.425 16.0813 -3.58278 77.6372 0.58676 0.0003311 0.0646653 -51.3823 -2.82517 91.9403 -5.08811 50.5927 -16.9714 -0.451794 -12.4562 -1.07098 6.93666 -15.0896 4.87859 2.86818 4.79643 83.083 168.601 64.5826 -172.232 -1.94485 18.3648 -0.692938 2.77303 -3.65461 -17.9372 
56.0831 95.9561 47.5241 57.8911 -35.6985 -17.3985 -70.1915 0 88.8779 103.004 64.4286 -17.3531 -1.10619 14.0202 3.2678 -148.524 16.196 168.39 -149.634 55.0576 -178.563 0.509675 -12.9082 -30.1571 -88.2503 42.8038 -68.4645 18.1353 -4.3436 -102.245 0.420957 0.000575239 0.35866 -2.00774 5.71627 49.4102 -65.0549 -44.6805 52.9484 14.5107 -3.39233 77.0029 0.58676 0.0003311 0.0646653 -62.9676 -0.484268 89.8282 -3.62558 40.2876 -17.1349 -4.99046 5.3321 1.19855 9.54272 -20.3979 -8.5151 4.15588 4.1147 82.2696 148.72 83.1955 -153.723 -2.70271 19.0941 -0.514556 2.1531 -4.97534 -13.0934 
66.242 98.822 57.3344 57.0197 -34.7855 -16.9358 -70.1915 0 88.8779 95.0157 63.819 -8.69951 1.19879 12.5003 4.32025 -147.749 16.1599 169.932 -149.193 54.8896 -178.559 0.595341 -12.4719 -30.1704 -90.4313 43.0926 -67.9235 17.1546 -6.21162 -108.5 0.420957 0.000575239 0.35866 -2.02333 5.88132 48.7167 -66.7933 -45.7679 46.6632 14.0224 -2.97248 78.1458 0.58676 0.0003311 0.0646653 -70.8437 2.60854 91.5549 -2.3243 32.6579 -23.3811 -13.0033 16.5103 4.73365 0.247426 0.800226 -3.10637 1.94949 3.78771 81.9894 7.36569 71.967 -10.3772 -0.515794 19.8362 -1.20729 1.48934 0.950727 -9.46176 
76.6063 99.8539 66.9534 55.7115 -33.8068 -18.88 -70.1915 0 88.8779 84.3046 62.4958 2.00065 3.77916 11.8185 3.2662 -147.327 15.8256 170.57 -148.287 54.3728 -179.06 0.702237 -11.9867 -29.4861 -91.0279 43.7973 -67.5057 17.4908 -8.51696 -114.329 0.420957 0.000575239 0.35866 -2.10409 6.319 47.6154 -68.6457 -47.1111 41.5832 15.4482 -2.60332 80.5178 0.58676 0.0003311 0.0646653 -74.0623 2.03591 90.4212 -3.05705 36.8653 -14.0055 -7.85758 13.1074 2.82668 -3.14391 5.98894 1.62432 -1.7413 3.49394 83.7532 3.07946 48.4793 4.22908 3.72682 19.8051 -2.477 3.17129 0.12925 -19.6092 
86.442 99.9128 76.2521 55.7926 -32.2661 -21.4096 -70.1915 0 88.8779 74.863 60.8795 8.87592 6.19303 11.3812 2.62962 -148.303 15.607 170.633 -148.737 53.9594 179.482 0.815332 -11.4568 -28.4339 -89.8492 45.425 -67.509 17.2192 -9.46717 -117.099 0.420957 0.000575239 0.35866 -1.93989 6.17999 45.8309 -69.8696 -48.3715 40.2589 17.086 -2.56723 81.5476 0.58676 0.0003311 0.0646653 -75.3303 1.41979 93.3423 -3.4711 46.5196 -8.27275 -6.31063 10.9487 2.16737 -1.80014 2.05458 3.88232 -6.20753 0.446092 83.0439 2.16223 29.7679 4.62029 5.58067 17.4744 -2.74841 3.34086 3.43665 -19.6804 
96.0884 99.7504 85.223 58.5489 -32.2826 -22.1997 -70.1915 0 88.8779 75.8543 61.2845 6.13657 4.97762 11.8141 2.5071 -144.754 16.2966 172.397 -148.965 54.8553 -178.458 0.677376 -12.1233 -29.4218 -87.6395 46.033 -66.3319 17.7795 -8.91462 -114.948 0.420957 0.000575239 0.35866 -1.83658 5.98978 45.174 -71.6637 -47.6657 39.575 18.9381 -3.04753 81.029 0.58676 0.0003311 0.0646653 -76.2158 -0.4098 93.5472 -4.95274 59.692 -0.938811 -9.53109 11.6555 3.00657 -4.17777 4.39117 8.73535 -11.5959 -0.873972 85.5585 2.48657 23.7378 2.47695 2.76183 20.2726 -2.23338 2.8681 -6.82315 -19.8982 
105.839 98.8445 94.2654 60.7543 -33.2214 -22.2294 -70.1915 0 88.8779 77.6098 62.5906 4.37195 4.73798 12.8116 2.22023 -143.598 17.1591 173.758 -148.502 55.5935 -178.194 0.579545 -12.5933 -29.8058 -84.4429 48.2495 -66.7037 16.0545 -6.26459 -109.933 0.420957 0.000575239 0.35866 -1.70453 5.64636 44.797 -73.2337 -45.8883 42.2908 16.7634 -3.10267 79.6653 0.58676 0.0003311 0.0646653 -73.6792 -1.27781 94.1954 -14.3959 76.3524 8.98024 -6.1747 14.2176 2.55996 -2.21706 2.62849 4.46312 -16.0164 -2.0588 82.6337 1.87537 28.1305 -0.980708 0.740685 18.2065 -1.44988 2.38526 -8.86645 -15.4501 
115.595 97.1503 103.189 61.6438 -35.9255 -21.8747 -70.1915 0 88.8779 86.0689 64.8735 -1.37408 2.09737 14.4594 2.34487 -143.603 18.3349 177.219 -151.199 56.9097 -174.645 0.437765 -13.0574 -31.7503 -84.0289 49.4481 -64.371 17.5539 -4.49782 -103.14 0.420957 0.000575239 0.35866 -1.78909 5.69035 45.9733 -73.3086 -41.6583 47.0804 15.5389 -3.29645 78.183 0.58676 0.0003311 0.0646653 -68.6569 -0.575246 96.1918 -129.811 84.1954 123.781 -7.80838 13.0751 2.81004 -1.8877 0.477703 8.01358 -20.8652 -0.617032 80.1736 1.51884 37.052 0.456497 -3.9052 8.14236 0.30312 1.16857 -1.33931 -6.73589 
125.125 95.2206 112.035 61.4463 -39.0856 -21.6449 -70.1915 0 88.8779 95.733 67.4403 -6.82187 0.795984 17.0208 1.07856 -145.047 19.3705 178.255 -150.541 57.8014 -175.188 0.329674 -13.3775 -33.0987 -81.9055 50.336 -64.3017 17.1454 -1.69743 -94.7551 0.420957 0.000575239 0.35866 -1.92978 5.81019 47.6177 -73.5085 -37.2657 54.6588 14.7983 -3.67522 76.2457 0.58676 0.0003311 0.0646653 -59.5947 1.62979 98.2755 -163.751 69.7579 156.724 -5.76032 12.8349 2.28118 -1.01051 -1.26011 8.35336 -24.5439 2.31593 81.1104 1.59115 48.2498 -5.43546 -11.3833 -3.44847 1.5501 1.20415 -10.7757 1.44509 
133.001 93.2513 119.799 62.2639 -42.1308 -21.8692 -70.1915 0 88.8779 115.554 68.8193 -26.3853 -2.46111 20.0633 2.05623 -151.844 20.6361 -179.475 -154.831 59.4517 -174.593 0.161929 -13.787 -35.329 -79.7587 49.7011 -64.6895 16.9041 0.888373 -86.4093 0.420957 0.000575239 0.35866 -2.14602 6.24354 48.6356 -74.0438 -32.9009 65.7771 15.2044 -4.29024 74.5033 0.58676 0.0003311 0.0646653 -46.1754 4.3523 99.2707 -168.116 56.7076 160.099 -2.03755 11.8987 1.29976 0.680256 -3.42523 5.41908 -28.9514 6.36199 86.3183 3.17006 57.556 -4.06746 -8.8988 -11.8729 1.3053 2.43342 -12.9164 -17.4603 
